<svg id="Layer_1" data-name="Layer 1" xmlns="http://www.w3.org/2000/svg" xmlns:xlink="http://www.w3.org/1999/xlink" viewBox="0 0 49 64"><defs><style>.cls-1{fill:url(#linear-gradient);}.cls-2{fill:url(#linear-gradient-2);}.cls-3{fill:url(#linear-gradient-3);}.cls-4{opacity:0.25;}</style><linearGradient id="linear-gradient" x1="46.72" y1="-15.64" x2="2.83" y2="7.69" gradientUnits="userSpaceOnUse"><stop offset="0" stop-color="#36ddc9"/><stop offset="1" stop-color="#6a5fff"/></linearGradient><linearGradient id="linear-gradient-2" x1="54.87" y1="-0.31" x2="10.98" y2="23.02" xlink:href="#linear-gradient"/><linearGradient id="linear-gradient-3" x1="71.52" y1="15.75" x2="27.63" y2="39.08" xlink:href="#linear-gradient"/></defs><title>mjobs</title><circle class="cls-1" cx="6" cy="6" r="6"/><circle class="cls-2" cx="43" cy="6" r="6"/><path class="cls-3" d="M51.11,16.85a6,6,0,0,0-6,5.95v.05a.31.31,0,0,1,0,.1,12.5,12.5,0,0,1-25,0V22.8a6,6,0,0,0-12,0,.11.11,0,0,0,0,.05V58a6,6,0,0,0,12,0V43.93a24.49,24.49,0,0,0,25,0v6.12a5.65,5.65,0,0,0,.26,1.7,3.38,3.38,0,0,0,.11.34A6,6,0,0,0,57.12,50V22.8A6,6,0,0,0,51.11,16.85Z" transform="translate(-8.11)"/><path class="cls-4" d="M45.38,51.75a5.65,5.65,0,0,1-.26-1.7V43.93A24.54,24.54,0,0,0,57,25.54c0-.18,0-.37.05-.56,0-.36.06-.74.07-1.11C57.22,28.19,56.84,45.74,45.38,51.75Z" transform="translate(-8.11)"/><path class="cls-4" d="M20.12,51.89v-8A24.52,24.52,0,0,1,8.26,25.54c0-.19,0-.37,0-.56,0-.36-.06-.74-.07-1.11C8,28.23,8.4,46,20.12,51.89Z" transform="translate(-8.11)"/></svg>